<?xml version="1.0" encoding="UTF-8" standalone="no"?>
<!-- Created with Inkscape (http://www.inkscape.org/) -->

<svg
   width="261.15363mm"
   height="168.69148mm"
   viewBox="0 0 261.15362 168.69148"
   version="1.1"
   id="svg1"
   xml:space="preserve"
   inkscape:version="1.3.2 (091e20e, 2023-11-25, custom)"
   sodipodi:docname="lawlaw-logo.svg"
   xmlns:inkscape="http://www.inkscape.org/namespaces/inkscape"
   xmlns:sodipodi="http://sodipodi.sourceforge.net/DTD/sodipodi-0.dtd"
   xmlns="http://www.w3.org/2000/svg"
   xmlns:svg="http://www.w3.org/2000/svg"><sodipodi:namedview
     id="namedview1"
     pagecolor="#ffffff"
     bordercolor="#000000"
     borderopacity="0.25"
     inkscape:showpageshadow="2"
     inkscape:pageopacity="0.0"
     inkscape:pagecheckerboard="0"
     inkscape:deskcolor="#d1d1d1"
     inkscape:document-units="mm"
     inkscape:zoom="0.14517323"
     inkscape:cx="1043.5808"
     inkscape:cy="-2662.3366"
     inkscape:window-width="1920"
     inkscape:window-height="1171"
     inkscape:window-x="-9"
     inkscape:window-y="-9"
     inkscape:window-maximized="1"
     inkscape:current-layer="layer4"
     showgrid="false"><inkscape:page
       x="0"
       y="0"
       width="261.15363"
       height="168.69148"
       id="page2"
       margin="0"
       bleed="0" /></sodipodi:namedview><defs
     id="defs1" /><g
     inkscape:groupmode="layer"
     id="layer2"
     inkscape:label="Layer 2"
     transform="translate(-603.99459,-64.93367)"><g
       id="g19"
       transform="translate(579.98166,239.8819)"
       inkscape:export-filename="lawlaw-dark.svg"
       inkscape:export-xdpi="96"
       inkscape:export-ydpi="96"><path
         style="fill:#ffffff;fill-opacity:1;stroke:none;stroke-width:0;stroke-dasharray:none;stroke-opacity:1"
         d="m 166.77888,-174.85199 c 36.48893,-1.02067 94.40654,6.11802 107.76394,19.47541 14.76072,14.76073 11.84,31.02583 5.03112,64.91803 -4.19583,20.885365 -9.96439,42.032915 -26.61638,58.101635 -17.11421,16.51476 -68.60932,16.1474 -103.54426,20.12459 -37.49432,4.2685605 -107.69287,11.75221046 -121.72131,-1.62295 -13.21993,-12.6043 12.55855,-82.648625 24.18197,-121.234415 11.63415,-38.62143 112.50336,-39.69512 114.90492,-39.7623 z"
         id="path12"
         sodipodi:nodetypes="ssssssss" /><g
         id="g18"
         style="fill:#000000;fill-opacity:1;stroke-width:0;stroke-dasharray:none"
         transform="translate(3.6723201,-183.61592)"><path
           style="fill:#000000;fill-opacity:1;stroke:none;stroke-width:0;stroke-dasharray:none;stroke-opacity:1"
           d="m 87.477049,27.103279 c 5.193442,0.324591 8.763933,3.895082 10.386885,5.842621 1.622949,1.947543 1.136065,5.680329 -5.355738,10.22459 -6.491804,4.544264 -8.763934,7.140985 -10.549181,13.957377 -1.785244,6.816394 -1.298361,9.413115 0.649182,10.711476 1.947539,1.298361 21.585243,-3.895082 25.480323,-2.759017 3.89509,1.136066 6.00492,6.329508 2.92131,10.062295 -3.0836,3.732789 -5.68032,10.062297 -25.155733,9.900002 -19.47541,-0.162296 -15.418033,2.921309 -20.773771,3.2459 -5.355738,0.324591 -12.983606,-0.162295 -13.47049,-4.381966 -0.486886,-4.219672 1.460656,-7.627868 9.737704,-16.554098 8.27705,-8.926231 12.49672,-28.563934 15.742623,-32.459016 3.245901,-3.895082 4.706557,-6.816394 10.386886,-7.790164 z"
           id="path13" /><path
           style="fill:#000000;fill-opacity:1;stroke:none;stroke-width:0;stroke-dasharray:none;stroke-opacity:1"
           d="m 178.84918,23.695082 c 9.08852,0 10.87377,1.29836 12.33442,6.654097 1.46066,5.355738 -5.68032,13.632788 -5.51803,16.554098 0.1623,2.921312 1.78525,8.601641 6.16722,1.947542 4.38196,-6.654099 3.40819,-12.821311 11.84753,-14.281967 8.43935,-1.460656 7.14099,5.355738 6.32951,6.978689 -0.81147,1.622949 -6.81639,7.952457 -3.2459,10.711474 3.57049,2.759017 10.71148,-4.21967 13.63279,-12.009834 2.92131,-7.790164 6.16721,-13.308198 18.33934,-13.145902 12.17213,0.162295 20.77377,12.172129 10.22459,22.559015 -10.54918,10.386885 -26.94098,29.375409 -28.88852,31.160656 -1.94754,1.785247 -6.00492,4.381968 -11.52295,3.732786 -5.51803,-0.649179 -8.60164,-3.2459 -11.36066,-6.167212 -2.75902,-2.921312 -3.2459,-3.245903 -6.81639,0 -3.57049,3.2459 -9.73771,10.873769 -17.69017,10.22459 -7.95245,-0.649182 -7.62786,-6.167213 -4.54426,-13.795081 3.08361,-7.627869 10.0623,-21.260657 6.97869,-26.291805 -3.08361,-5.031147 -12.49672,-9.737705 -9.7377,-15.904916 2.3656,-5.287791 3.89508,-9.088525 13.47049,-8.92623 z"
           id="path14"
           sodipodi:nodetypes="csssssssssssssssssc" /><g
           id="g15"
           style="fill:#000000;fill-opacity:1;stroke-width:0;stroke-dasharray:none"><path
             id="path15"
             style="fill:#000000;fill-opacity:1;stroke:none;stroke-width:0;stroke-dasharray:none;stroke-opacity:1"
             d="m 132.04569,27.052612 c -0.74198,-0.0065 -1.47936,0.01007 -2.20969,0.05064 -14.60653,3.732782 -24.344,12.821587 -25.64236,14.769125 -1.29836,1.94754 -3.89548,7.952392 4.86844,8.439278 8.76393,0.486883 11.03639,-4.057652 17.2036,1.460376 6.16721,5.518025 -3.57041,19.313086 -5.84254,21.747509 -2.27213,2.434424 -11.84747,15.904847 -0.32453,16.554029 11.52294,0.649178 18.98836,-15.417755 25.15557,-14.930872 6.16721,0.486886 -2.92163,11.036113 4.38165,10.549227 7.30327,-0.486883 11.68552,-8.601661 14.76912,-18.826241 3.0836,-10.22458 2.27229,-20.936412 -3.57032,-27.915092 -5.47746,-6.542514 -17.6593,-11.801105 -28.78894,-11.897982 z M 144.2868,50.1835 c 0.2726,0.0035 0.54139,0.04701 0.80512,0.128158 8.60163,0.649178 5.68027,9.412862 5.68027,9.412862 -1.94754,6.978683 -9.25111,5.842537 -9.25111,5.842537 -5.03115,-0.649181 -5.19336,-4.057192 -3.08354,-9.088334 1.84611,-4.402249 3.94103,-6.319631 5.84926,-6.295223 z" /></g><path
           style="fill:#000000;fill-opacity:1;stroke:none;stroke-width:0;stroke-dasharray:none;stroke-opacity:1"
           d="m 104.35574,88.937705 c 4.38098,-0.09321 3.2459,4.706556 1.13606,10.386885 -2.10984,5.68033 -8.601639,9.41311 -13.795079,10.71147 -5.193442,1.29836 -22.382404,8.60142 -22.234426,18.66394 0.162295,11.03606 18.772656,5.97063 27.265574,3.2459 10.645101,-3.4152 12.172131,5.03115 11.036061,12.17213 -1.13606,7.14098 -3.40819,13.47049 -14.281964,13.1459 -10.873769,-0.32459 -14.281968,-1.29836 -20.773771,0.48689 -6.491803,1.78524 -11.036064,6.16721 -22.559015,4.86885 -11.522951,-1.29836 -17.690163,-5.84262 -18.50164,-11.68525 -0.811475,-5.84262 0.811477,-11.52295 12.983606,-19.96229 12.172133,-8.43934 16.391803,-15.74262 22.072132,-25.64262 C 72.383607,95.429508 81.309836,93.157375 89.1,93.157375 c 14.44426,0 12.00651,-4.150538 15.25574,-4.21967 z"
           id="path16"
           sodipodi:nodetypes="ssssssssssssss" /><g
           id="g17"
           style="fill:#000000;fill-opacity:1;stroke-width:0;stroke-dasharray:none"><path
             id="path17"
             style="fill:#000000;fill-opacity:1;stroke:none;stroke-width:0;stroke-dasharray:none;stroke-opacity:1"
             d="m 144.13022,92.724573 c -9.16395,-0.153102 -14.01016,2.846836 -19.97449,4.976957 -6.81639,2.43442 -15.41786,7.62791 -14.44408,13.30823 0.97377,5.68032 10.06228,3.24578 18.9885,0.64906 8.92623,-2.59672 11.19819,-0.64904 11.68508,1.94768 0.48688,2.59672 -1.78514,5.35562 -6.0048,6.0048 -4.21967,0.64919 -8.92635,-2.27188 -15.58045,6.81664 -6.65409,9.08851 -5.19341,26.94104 -0.16226,32.13447 5.03114,5.19345 10.38673,5.19333 17.04082,0.64906 6.65408,-4.54425 14.60693,-16.22959 19.63808,-15.74271 5.03114,0.48689 1.78508,5.84276 3.57032,10.06244 1.78525,4.21966 4.86897,4.21938 7.4657,4.21938 2.59671,0 4.8687,-0.81125 6.16706,-3.89485 1.29836,-3.0836 -2.27196,-10.7115 -3.57032,-18.82625 -1.29836,-8.11475 2.10943,-14.93109 2.10943,-21.90977 0,-6.97868 -7.62766,-20.12487 -22.72109,-20.12487 -1.50123,-0.162294 -2.89836,-0.248396 -4.2075,-0.270267 z m -0.60771,34.179827 c 3.51137,0.0577 6.77285,1.83636 -0.37828,9.74824 -7.62786,8.43933 -13.14572,7.62775 -14.44408,6.0048 -1.29835,-1.62296 -5.19356,-5.84273 3.40807,-12.9837 2.92131,-1.62295 6.9787,-2.59671 10.71149,-2.75901 0.2333,-0.0101 0.4687,-0.0142 0.7028,-0.0103 z" /></g><path
           style="fill:#000000;fill-opacity:1;stroke:none;stroke-width:0;stroke-dasharray:none;stroke-opacity:1"
           d="m 194.7541,84.555736 c 6.97868,-0.162295 13.63278,6.97869 13.79508,11.036067 0.16229,4.057375 -4.54426,7.303277 -4.38197,12.009837 0.1623,4.70655 0.48689,5.19344 2.27213,5.35574 1.78525,0.16229 5.03115,-2.92132 6.32951,-7.79017 1.29836,-4.86885 5.84262,-17.690161 14.11967,-16.878687 8.27705,0.811477 4.86885,6.167213 3.73279,12.009837 -1.13607,5.84262 3.08361,11.52295 6.16721,1.13607 3.08361,-10.38689 -0.16229,-11.036069 5.35574,-21.58525 5.51803,-10.549181 15.25574,-18.663936 19.8,-16.554098 4.54426,2.109835 9.25082,6.654096 5.03114,15.093442 -4.21967,8.439343 -12.33442,24.668856 -13.63278,33.270496 -1.29836,8.60163 -3.08361,24.66885 -10.0623,30.51147 -6.97868,5.84262 -15.90491,11.03607 -20.93606,8.60164 -5.03115,-2.43443 -3.4082,-7.62787 -1.62295,-14.44426 1.78525,-6.8164 -3.2459,-7.30328 -8.27705,-3.08361 -5.03115,4.21967 -13.1459,19.31311 -22.88361,20.28688 -9.7377,0.97378 -10.38688,-18.98852 -1.94754,-30.99835 8.43935,-12.00984 2.43443,-18.01476 -1.78524,-16.5541 -4.21968,1.46065 -12.82132,-6.167216 -3.4082,-14.281969 9.41312,-8.114754 12.33443,-7.140985 12.33443,-7.140985 z"
           id="path18" /></g></g></g></svg>
