<?xml version="1.0" encoding="UTF-8" standalone="no"?>
<!-- Created with Inkscape (http://www.inkscape.org/) -->

<svg
   width="816.12152mm"
   height="180.20766mm"
   viewBox="0 0 816.12151 180.20766"
   version="1.1"
   id="svg1"
   xml:space="preserve"
   xmlns="http://www.w3.org/2000/svg"
   xmlns:svg="http://www.w3.org/2000/svg"><defs
     id="defs1" /><g
     id="layer4"
     transform="translate(-509.8526,131.80169)"><path
       style="fill:none;fill-opacity:1;stroke:#000000;stroke-width:7;stroke-dasharray:none;stroke-opacity:1"
       d="m 582.58962,-104.17763 c 10.00795,0.6255 16.88841,7.50596 20.0159,11.25894 3.12748,3.75298 2.18924,10.9462 -10.32069,19.70316 -12.50995,8.75695 -16.88843,13.76092 -20.32865,26.89637 -3.44024,13.13544 -2.50201,18.13942 1.25099,20.64141 3.75298,2.50198 41.59554,-7.50597 49.1015,-5.31672 7.50598,2.18923 11.5717,12.19718 5.62947,19.39041 -5.94221,7.1932199 -10.94618,19.3904196 -48.476,19.0776596 -37.52982,-0.31274 -29.71112,5.6294704 -40.03181,6.2549704 -10.3207,0.62549 -25.01989,-0.31274 -25.95812,-8.4442004 -0.93826,-8.1314597 2.81472,-14.6991797 18.7649,-31.9003596 15.95017,-17.20118 24.08163,-55.04376 30.3366,-62.54972 6.25497,-7.50596 9.06971,-13.13543 20.01591,-15.01192 z"
       id="path13-7" /><path
       style="fill:none;fill-opacity:1;stroke:#000000;stroke-width:7;stroke-dasharray:none;stroke-opacity:1"
       d="m 792.67889,-120.92342 c 17.51391,0 20.95415,2.50199 23.76888,12.82269 2.81474,10.32071 -10.94619,26.27088 -10.63345,31.90035 0.31276,5.62947 3.44024,16.57567 11.88446,3.75298 8.44419,-12.82269 6.5677,-24.70713 22.83062,-27.52187 16.26293,-2.81473 13.76094,10.3207 12.19719,13.44819 -1.56373,3.12748 -13.13543,15.32468 -6.25496,20.64139 6.88046,5.31673 20.64141,-8.13144 26.27088,-23.14338 5.62947,-15.01192 11.88443,-25.64538 35.34057,-25.33262 23.45613,0.31273 40.03181,23.45613 19.70315,43.47203 -20.32865,20.01591 -51.91624,56.60748 -55.66922,60.04773 -3.75298,3.4402399 -11.5717,8.4442099 -22.20514,7.1932199 -10.63345,-1.251 -16.57567,-6.25497 -21.89241,-11.8844599 -5.31673,-5.62948 -6.25496,-6.25498 -13.13543,0 -6.88046,6.2549699 -18.76492,20.9541496 -34.08959,19.7031599 -15.32466,-1.251 -14.69917,-11.88444 -8.75696,-26.5836299 5.94223,-14.69918 19.39042,-40.97005 13.44819,-50.66525 -5.94223,-9.69521 -24.08163,-18.76492 -18.7649,-30.64936 4.5586,-10.18976 7.50596,-17.51391 25.95812,-17.20117 z"
       id="path14-8" /><path
       style="fill:none;fill-opacity:1;stroke:#000000;stroke-width:7;stroke-dasharray:none;stroke-opacity:1"
       d="m 1016.4597,-103.26876 c 6.8633,-0.14601 5.085,7.37333 1.7797,16.27217 -3.3052,8.89884 -13.4753,14.74664 -21.61142,16.78066 -8.13607,2.03402 -35.06442,13.47505 -34.83259,29.23906 0.25425,17.28917 29.40936,9.35363 42.71441,5.08505 16.6767,-5.35028 19.069,7.88184 17.2892,19.06894 -1.7798,11.1870999 -5.3393,21.1029499 -22.37423,20.5944499 -17.03492,-0.50851 -22.37423,-2.03402 -32.54433,0.76276 C 956.71033,7.3310996 949.59126,14.19592 931.53932,12.1619 913.48739,10.12789 903.8258,3.0088199 902.55453,-6.1442701 901.28327,-15.29736 903.8258,-24.1962 922.89474,-37.41733 c 19.06894,-13.22113 25.67951,-24.6625 34.57835,-40.17191 8.89884,-15.50941 22.88274,-19.06894 35.08686,-19.06894 22.62845,0 18.80945,-6.50227 23.89975,-6.61058 z"
       id="path16-1" /><path
       style="fill:none;fill-opacity:1;stroke:#000000;stroke-width:7;stroke-dasharray:none;stroke-opacity:1"
       d="m 1206.6619,-94.41838 c 10.9459,-0.25457 21.3827,10.94588 21.6372,17.30976 0.2545,6.36389 -7.1275,11.45499 -6.8729,18.8371 0.2545,7.38209 0.7636,8.14576 3.5636,8.40032 2.8002,0.25455 7.8914,-4.582 9.9277,-12.21865 2.0365,-7.63665 9.1641,-27.74654 22.1464,-26.47376 12.9824,1.27278 7.6367,9.67311 5.8548,18.83711 -1.7819,9.16398 4.8365,18.07342 9.6731,1.78188 4.8365,-16.29154 -0.2546,-17.30978 8.4003,-33.85587 8.6548,-16.54609 23.9282,-29.27387 31.0557,-25.96465 7.1276,3.30923 14.5097,10.43677 7.8912,23.67365 -6.6184,13.23689 -19.3461,38.69242 -21.3826,52.18386 -2.0365,13.49141 -4.8365,38.69241 -15.7824,47.8563899 -10.9458,9.1639897 -24.9465,17.3097701 -32.8377,13.4914397 -7.8912,-3.81834 -5.3457,-11.9640997 -2.5455,-22.6554196 2.8001,-10.69134 -5.0911,-11.45499 -12.9823,-4.83656 -7.8912,6.61844 -20.619,30.29208 -35.8923,31.81941 -15.2734,1.52735 -16.2916,-29.78297 -3.0547,-48.62006 13.2369,-18.83709 3.8183,-28.25565 -2.8001,-25.96463 -6.6184,2.29097 -20.1099,-9.67312 -5.3457,-22.40089 14.7643,-12.72775 19.3462,-11.20043 19.3462,-11.20043 z"
       id="path18-8" /><path
       d="M 770.28774,7.5103996 C 765.30575,5.6717596 759.1079,3.3883999 757.49172,0.88254989 753.66627,-5.0187301 753.66627,-16.64337 753.66627,-25.9995 c 0,-1.31958 0.0593,-3.00993 0.14828,-5.01164 0.51893,-13.40392 1.58653,-41.29418 -12.72188,-61.35564 -15.52425,-21.75171 -36.3567,-29.93641 -48.93031,-26.74855 -6.19783,1.57171 -12.61808,6.86506 -18.28213,11.5357 -3.02479,2.491 -7.17645,5.91613 -8.49609,6.1385 -5.90129,0 -12.09913,8.79263 -13.41876,14.72361 -1.05274,4.78922 0.59309,8.70364 4.41855,10.46813 10.60157,4.92265 20.19487,-4.32962 28.64647,-12.49948 5.50095,-5.29335 11.17983,-10.77949 15.50943,-10.77949 11.19466,0 28.26095,22.93791 28.52784,26.97097 0,4.70028 5.50096,13.75978 9.83055,20.1652 -5.56026,-0.26675 -13.44842,-0.57828 -21.27727,-0.69686 l -1.26033,-20.69904 c -0.11863,-1.92751 -1.79411,-3.38064 -3.70684,-3.27685 -1.92756,0.1188 -3.39546,1.77928 -3.27685,3.70685 l 1.23068,20.22454 c -3.7365,0 -7.28024,0.074 -10.33468,0.23705 l -1.15653,-19.02348 c -0.11864,-1.92757 -1.79411,-3.38064 -3.70685,-3.27685 -1.92755,0.1188 -3.39546,1.77928 -3.27684,3.70685 l 1.17136,19.32005 c -0.50414,0.0891 -0.97861,0.19278 -1.37894,0.31158 -1.70515,0.48924 -5.48613,1.86828 -10.23088,3.7365 l -4.72993,-18.63799 c -0.4745,-1.86827 -2.37238,-2.99513 -4.25546,-2.53549 -1.86824,0.47466 -3.00995,2.37236 -2.53548,4.25549 l 4.96717,19.58691 c -2.46134,1.02308 -5.01165,2.13514 -7.56196,3.26201 l -12.63291,-18.17834 c -1.09723,-1.58651 -3.27685,-1.97201 -4.86338,-0.8748 -1.58653,1.09722 -1.97204,3.27686 -0.87481,4.86336 l 11.9212,17.15527 c -3.64753,1.73479 -7.08748,3.49927 -9.99365,5.15992 l -9.72674,-13.99705 c -1.09723,-1.58651 -3.27686,-1.97201 -4.86338,-0.87479 -1.58653,1.09721 -1.97204,3.27685 -0.87482,4.86336 l 9.60814,13.83397 c -1.09723,0.87479 -1.92756,1.6755 -2.35755,2.402 -3.78098,6.10886 -7.44334,33.2874696 -6.77611,38.66976 0.74137,6.04957 9.63778,25.073108 24.82101,25.073108 2.7134,0 6.00508,0.11881 9.83054,0.26675 4.78924,0.17765 10.21605,0.37043 15.8208,0.37043 10.23088,0 21.09934,-0.66722 29.98093,-3.32135 13.09256,-3.914418 24.22792,-12.024988 29.26922,-16.117338 3.92925,4.61134 12.30671,12.87019 21.85553,12.87019 7.17645,0 11.89155,-1.58656 14.44186,-4.83377 1.27515,-1.631 2.57996,-4.49265 1.51239,-8.80742 -1.05274,-4.27028 -6.50921,-6.28679 -13.40394,-8.8222804 z M 736.06618,-72.54259 c 0,-7.63607 -20.16522,-33.96947 -35.52637,-33.96947 -7.16162,0 -13.58187,6.183 -20.37279,12.7367 -7.17645,6.92436 -14.59013,14.08599 -20.84728,11.17984 -0.34101,-0.16307 -0.83033,-0.38556 -0.6524,-1.91271 0.48929,-4.18135 5.08578,-9.59334 6.70196,-9.93435 3.39547,0 6.95404,-2.78756 12.9443,-7.73991 4.84854,-3.98857 10.88328,-8.97056 15.5539,-10.15671 7.97712,-2.01656 26.30374,2.72821 41.51662,24.03512 7.30989,10.26056 10.17158,23.13069 11.17983,34.66639 -5.39716,-7.71021 -10.48294,-16.39905 -10.48294,-18.9197 z m -39.11459,62.33429 c 1.0824,2.0016499 2.74306,4.0774999 5.13027,6.2867799 0.23722,1.58651 1.4086,3.06927999 2.80237,4.80406999 3.98856,4.95234971 4.77441,7.05783971 3.18788,8.62954971 -0.3707,0.37043 -0.91929,0.7265104 -2.2241,0.5335104 -5.58992,-0.8007104 -14.42703,-9.66748011 -16.29527,-13.0481201 -3.36582,-6.10886 -4.00339,-10.3049999 -3.39547,-11.3280699 0.11864,-0.19278 0.71171,-0.37043 1.66067,-0.37043 0.0443,0 0.10378,0 0.14828,0 2.71341,0.0448 6.03474,2.00171 8.97055,4.5075 z m 11.78776,2.7875099 c -1.40861,-2.20929 -3.52892,-4.7447199 -6.06439,-7.0726399 -0.84517,-2.80236 0.60792,-5.61958 3.76614,-10.4088 1.48274,-2.25377 3.36582,-3.15827 5.7382,-3.15827 2.89133,0 6.52404,1.34929 11.06121,3.20271 0.90447,0.37043 1.79411,0.72657 2.6541,1.06757 0.23722,2.50585 0.87481,4.70028 1.46791,6.68715 1.18619,4.03306 1.97204,6.70199 -0.5931,10.7646999 -1.21584,1.94236 -2.87651,3.03963 -5.0413,3.38064 -4.28511,0.66721 -9.62296,-1.80893 -12.97395,-4.47786 z M 719.69677,-33.65042 c 0.9193,-0.028 1.85342,-0.0891 2.78754,-0.17765 l 0.28172,-0.028 c 0.62275,0.60793 1.31963,1.31964 2.04617,2.0907 -1.58652,-0.63762 -3.3065,-1.31964 -5.11544,-1.88312 z m -19.09765,4.89306 c -2.28341,3.45478 -3.91442,6.47956 -4.68544,9.35606 -2.55031,-1.36413 -5.21924,-2.25377 -7.7992,-2.29821 -4.58165,-0.10368 -6.86507,1.98685 -7.93264,3.7513 -2.96547,4.90785 0.13344,12.6774099 3.24719,18.32661989 2.43169,4.38892001 12.64775,15.33149011 21.42555,16.59183011 0.57827,0.0891 1.12688,0.11881 1.66066,0.11881 3.1434,0 5.23406,-1.36414 6.49439,-2.62448 3.6327,-3.61786 3.32133,-7.5915804 1.83859,-11.0612101 1.74963,0.47466 3.55857,0.77106 5.38233,0.77106 0.85999,0 1.71998,-0.0594 2.56514,-0.19278 4.16649,-0.65242 7.59161,-2.92099 9.88985,-6.5685 4.25546,-6.73163 2.72824,-11.9064099 1.39377,-16.4732599 -0.0443,-0.13338 -0.0741,-0.26675 -0.11863,-0.40013 1.02309,1.91273 1.79411,3.78095 2.12031,5.47129 1.30481,6.7612799 0.11864,16.9624899 -5.4713,24.49483 -4.18131,5.63436 -10.05295,8.86672 -17.43698,9.60813 -14.16013,1.45307 -39.6632,-9.63783 -43.69624,-17.2887501 -3.60305,-6.82057 -0.35586,-29.5954199 6.24232,-34.9777599 4.34442,-3.54372 9.02986,-4.67058 14.13048,-4.67058 4.13683,0 8.54056,0.74136 13.24083,1.54201 1.64584,0.28188 3.30651,0.54863 4.982,0.8007 -2.75789,0.78586 -5.33785,2.52065 -7.45817,5.73821 z m -29.53611,57.94537 c -3.88477,-0.1485 -7.25058,-0.26675 -10.0826,-0.26675 -10.36433,0 -17.43698,-15.31664 -17.8818,-18.9345504 -0.54864,-4.463 3.11374,-29.8029896 5.75301,-34.0881196 1.48274,-1.972 10.39398,-6.58335 20.13556,-11.03156 -7.63609,9.72677 -10.3495,32.4274699 -5.70853,41.2201096 5.27854,9.9936304 30.95954,21.1438304 47.43273,21.1438304 0.45965,0 0.87482,-0.0448 1.33447,-0.0594 -12.42533,3.02478 -28.79474,2.4762 -40.98284,2.03135 z m 105.61532,-8.34784 c -0.50414,0.65243 -2.3872,2.14999 -8.9409,2.14999 -7.73988,0 -15.96907,-9.31162 -18.48972,-12.89983 l -2.29824,-3.2620004 -2.93582,2.69857 c 0,0 -3.78098,3.4251304 -9.57848,7.2950604 0.60792,-0.68207 1.21584,-1.39378 1.77929,-2.14993 6.04956,-8.1402704 8.68883,-19.9131901 6.73162,-29.99581 -2.04618,-10.52743 -16.59182,-26.61513 -20.93624,-27.46028 l -2.52065,-0.40012 -1.28999,1.97206 c -0.13343,0.19278 -0.23721,0.40013 -0.32621,0.59307 -4.49269,-0.028 -9.11883,-0.8155 -13.62635,-1.5865 -4.75958,-0.80071 -9.5933,-1.61621 -14.36771,-1.61621 1.54204,-0.54863 2.90616,-1.00822 4.00339,-1.33443 2.50582,-0.72657 8.85193,-0.99343 16.68078,-0.99343 11.0019,0 24.90997,0.5335 35.15569,1.12686 l 1.28997,0.074 c 0.11864,5.33786 -0.0741,10.06778 -0.20757,13.67084 -0.0741,2.1055 -0.14828,3.88478 -0.14828,5.27851 0,10.79435 0,23.0417599 4.95234,30.6778299 2.89133,4.4482097 9.68227,6.9540601 16.25079,9.3857701 3.23237,1.18615 8.08091,2.98028 9.08918,4.15164 0.3855,1.76443 -0.10379,2.402 -0.28172,2.60963 z"
       id="path1-3-7-0"
       style="fill:#000000;stroke-width:1.48273" /><path
       d="m 1188.9432,18.09695 c -4.5668,-0.91929 -8.2885,0.20735 -11.0019,1.03792 -0.6375,0.19278 -1.4382,0.42983 -1.9868,0.54864 -0.2224,-0.66722 -0.5783,-2.26857 -0.6821,-5.84194 -0.2521,-8.7481904 -0.8748,-15.5242601 -1.4382,-21.4996901 -0.4893,-5.2785599 -0.9193,-9.8305499 -0.9193,-14.2936099 0,-2.14994 0.3855,-3.67715 0.8451,-5.42679 1.4235,-5.51578 2.8914,-11.22434 -5.8123,-32.47196 -11.3429,-27.72712 -15.4056,-34.04361 -27.1193,-42.25796 -11.4022,-7.99193 -18.297,-10.95742 -34.3402,-11.66913 -13.7153,-0.60793 -27.994,9.74156 -36.4753,15.92456 -1.8534,1.34929 -3.4548,2.5207 -4.6113,3.24721 -0.9045,0.57828 -1.9572,1.1862 -3.0841,1.83857 -7.5916,4.43342 -19.0828,11.1354 -15.8208,21.49969 l 3.1434,9.99363 0.8452,0.66728 c 5.4861,4.32957 12.5588,-0.31159 21.5145,-6.19785 5.7085,-3.75135 12.1881,-8.00678 19.0531,-10.52742 3.3362,-1.21585 5.9606,-2.28342 8.1551,-3.17307 8.6147,-3.48442 9.7119,-3.92927 22.2855,-0.85999 10.483,2.56514 18.9643,11.47641 25.2066,26.49648 -2.1352,0.48923 -7.1468,0.20791 -10.3792,0.0168 l -0.2372,-11.59499 c -0.044,-1.92757 -1.6904,-3.54377 -3.5734,-3.42514 -1.9276,0.0448 -3.4696,1.631 -3.4252,3.57342 l 0.2224,11.17984 h -0.4003 c -1.0379,0 -2.2241,0.10368 -3.4844,0.26676 l -3.351,-13.18155 c -0.4745,-1.86822 -2.3724,-3.00994 -4.2555,-2.53544 -1.8682,0.47466 -3.0099,2.37236 -2.5354,4.25543 l 3.2323,12.75155 c -3.3806,0.8155 -7.0578,1.91272 -10.8091,3.17307 l 1.4086,-17.60012 c 0.1483,-1.92757 -1.2752,-3.61786 -3.2027,-3.76614 -1.9128,-0.16308 -3.6179,1.27514 -3.7662,3.20271 l -1.6607,20.74348 c -1.5568,0.59308 -3.0989,1.201 -4.6113,1.82378 l -4.7002,-16.32491 c -0.5338,-1.85343 -2.4762,-2.93585 -4.3296,-2.40207 -1.8535,0.53351 -2.9359,2.47621 -2.3872,4.32958 l 4.9375,17.18496 c -2.7431,1.2455 -5.2489,2.47615 -7.3989,3.63266 l -4.7003,-18.50455 c -0.4745,-1.86822 -2.3723,-3.00994 -4.2554,-2.53544 -1.8683,0.47466 -3.01,2.37236 -2.5355,4.25543 l 5.1006,20.12076 c -3.1137,1.51236 -6.6575,3.11371 -10.3643,4.75957 l -4.3889,-17.30355 c -0.4745,-1.86822 -2.3724,-3.00993 -4.2555,-2.5355 -1.8682,0.47467 -3.0099,2.37242 -2.5354,4.25549 l 4.6854,18.47491 c -2.5948,1.17135 -5.1154,2.32786 -7.473,3.48442 l -9.7712,-16.29527 c -0.9935,-1.6607 -3.1435,-2.19448 -4.8041,-1.20106 -1.6607,0.99349 -2.1945,3.14342 -1.2011,4.80407 l 9.5489,15.92462 c -4.0479,2.28342 -7.221,4.53714 -8.8964,6.77613 -1.0676,1.43822 -2.5207,2.90614 -4.0479,4.463 -3.0841,3.1434199 -6.8058,6.9688499 -8.2144,11.7284799 l -0.2224,6.8650697 c 0.3411,1.542 0.9193,3.1730104 1.8683,4.8930004 1.0824,1.97206 2.1944,4.35927 3.3658,6.87991 5.3378,11.506 12.6626,27.282343 29.6103,25.962703 16.147,-1.2455 23.1603,-3.11372 37.1129,-6.82057 l 5.8864,-1.55686 c 11.6988,-3.08413 28.0682,-13.804273 41.235,-22.418983 3.8106,-2.49099 7.9326,-5.1896204 10.987,-7.0282004 -0.252,7.8881404 0.1335,21.6331204 5.0858,29.9216234 4.7003,7.87334 12.9592,10.60156 19.2311,10.60156 0.5338,0 1.0379,-0.0168 1.5421,-0.0594 5.5306,-0.41526 9.7712,-2.98029 11.3577,-6.86507 0.519,-1.27514 1.2752,-2.71342 2.061,-4.24064 2.4169,-4.65578 5.1748,-9.919493 3.0545,-14.338053 -1.1862,-2.47615 -3.6031,-4.09236 -7.2061,-4.81892 z m -85.3611,-45.54967 c 3.4251,-2.52064 8.1402,-3.46957 13.0184,-3.46957 4.8782,0 9.7564,0.91928 13.7894,2.16478 l 0.6376,0.13338 c 0.6524,0.074 0.9786,0.29645 1.2752,0.87479 1.4679,2.83206 0.1927,10.37919 -2.6245,15.52427 -3.6772,6.7167799 -14.1305,8.7777799 -21.7072,6.8354199 -3.5586,-0.91929 -9.5192,-3.46958 -9.5044,-10.3346999 0,-5.3675 1.6755,-9.19293 5.1155,-11.72842 z m -4.1369,-5.63442 c -5.2044,3.82549 -7.9623,9.83056 -7.9623,17.34805 0,8.3477799 5.5158,14.75319989 14.7533,17.1256199 2.3279,0.59308 4.8485,0.90444 7.3988,0.90444 8.763,0 18.0153,-3.57337 22.1669,-11.15014 3.0248,-5.5157799 5.8717,-16.0284099 2.6986,-22.1076199 -0.1779,-0.34129 -0.4152,-0.62278 -0.6227,-0.93414 2.0907,0.91929 3.7068,1.94236 4.641,3.02478 1.6161,1.89793 2.2241,4.41857 1.8386,7.68057 -1.379,11.7581199 -15.3464,28.6019696 -24.7618,35.49674 -3.173,2.32786 -6.2571,4.34442 -9.2226,6.06436 2.0165,-3.98857 1.7941,-8.12536 1.6903,-9.74156 h -3.4992 l 3.4844,-0.22248 -0.1334,-2.2240804 -2.061,-0.83035 c -4.8931,-1.95721 -9.0151,-5.2192197 -13.3892,-8.6739997 -4.2702,-3.38064 -8.7036,-6.87991 -14.0266,-9.2077799 l -1.9276,-0.8452 -1.6458,1.30485 c -7.3248,5.7974899 -6.4796,11.7284199 -5.3231,14.7680499 3.9145,10.2457101 22.6563,17.8669801 32.1013,18.1931401 -11.5802,5.67891 -21.2921,6.43512 -28.083,1.92756 -9.5637,-6.36092 -11.7137,-21.5441201 -8.8965,-33.2429601 1.6162,-6.7019299 4.5965,-11.9804899 8.4813,-15.2869899 0.3558,0.51894 0.8452,0.94893 1.4531,1.21586 1.7644,0.78585 3.8254,0 4.6261,-1.76449 0.5189,-1.17136 1.3196,-2.26858 2.3724,-3.29165 0.044,0 0.1038,0 0.1483,-0.0168 1.3789,-0.16308 2.4613,-1.09722 2.9061,-2.31307 3.2176,-1.98686 7.6213,-3.54372 12.9295,-4.552 -0.7414,0.41526 -1.4679,0.86 -2.15,1.36414 z m 5.6937,46.02416 c -0.03,0.88965 -0.1334,1.89793 -0.43,2.921 -7.4581,-0.80071 -22.0927,-7.0133504 -24.6134,-13.6411901 -0.2966,-0.77101 -1.0082,-2.65408001 1.5421,-5.35265 3.6771,1.92757 6.9985,4.56679 10.4977,7.32471 4.0034,3.1582097 8.1254,6.4202101 13.0036,8.7481301 z m -47.0768,25.799623 c -12.1437,0.86 -17.7485,-11.224343 -22.7304,-21.944483 -1.2307,-2.63928 -2.3873,-5.14513 -3.6031,-7.3247104 -0.2817,-0.51894 -0.5041,-1.00828 -0.6969,-1.49757 l 0.4448,-6.8502697 c 1.1566,-2.10550001 3.1583,-4.24064 5.6938,-6.83542 1.631,-1.66065 3.3064,-3.36579 4.6558,-5.1747199 1.2603,-1.67549 4.4927,-3.7217 8.5702,-5.87163 0.5486,-0.028 1.0972,-0.16308 1.5865,-0.47467 0.3707,-0.22248 0.6673,-0.50436 0.9193,-0.8155 4.4038,-2.19443 9.4302,-4.44821 13.9674,-6.46471 0.7859,-0.35586 1.5717,-0.69692 2.3576,-1.05278 -3.3214,4.04786 -5.8568,9.28193 -7.3544,15.50942 -3.2769,13.6411899 -0.9786,32.19024 11.8322,40.70116 2.7876,1.853373 6.361,3.380643 10.8092,3.929223 -8.3775,2.09064 -14.8719,3.262 -26.4669,4.16649 z m 128.8201,-4.72992 c -0.8303,1.60135 -1.6903,3.2472 -2.3279,4.81891 -0.5337,1.31959 -2.7134,2.32787 -5.4119,2.53544 -4.7596,0.34129 -11.0019,-1.71994 -14.2343,-7.14678 -4.9079,-8.214353 -4.3741,-25.6364834 -3.7662,-31.6712531 l 0.4449,-4.35922 -4.3445,0.53407 c -2.9061,0.35584999 -7.6954,3.42507 -18.2525,10.3346397 -3.0544,2.0017004 -6.3906,4.1813404 -9.8602,6.3906204 9.7119,-9.0002004 20.7732,-23.7831101 22.1818,-35.82295 0.6079,-5.21921 -0.5486,-9.60813 -3.4548,-13.01842 -6.8206,-8.00677 -26.7041,-10.61641 -42.7028,-8.6592 9.4598,-3.45472 18.8455,-6.06436 23.7979,-6.06436 2.1203,0 4.5372,0.13338 6.8651,0.26676 8.0513,0.45953 14.427,0.83035 17.1404,-2.98029 0.86,-1.21585 1.631,-3.27685 0.4152,-6.25714 -7.1468,-17.46662 -17.3036,-27.90511 -30.1886,-31.06332 -14.2639,-3.48443 -16.8142,-2.77272 -26.5706,1.17135 -2.15,0.86 -4.7003,1.89793 -7.9475,3.08408 -7.6212,2.78756 -14.4566,7.28027 -20.4766,11.23913 -4.1813,2.74307 -10.2753,6.74648 -12.6329,6.74648 l -2.3575,-7.47299 c -1.4679,-4.64099 5.1599,-8.97056 12.6774,-13.35948 1.1862,-0.69686 2.313,-1.34928 3.2768,-1.95721 1.3641,-0.84515 3.0545,-2.09064 5.0117,-3.51407 7.7399,-5.64921 20.6397,-15.07942 32.0567,-14.59013 14.5309,0.65242 20.1208,3.03964 30.6334,10.40884 9.8009,6.87986 13.2557,11.31328 24.6579,39.17389 7.8289,19.11248 6.6427,23.66447 5.5158,28.08304 -0.5041,1.94236 -1.0676,4.13679 -1.0676,7.17642 0,4.78922 0.4448,9.4895 0.949,14.9459899 0.5486,5.87164 1.1713,12.5142797 1.4086,21.0400401 0.1483,5.51578 0.8303,9.59329 3.603,11.58014 2.6096,1.86828 5.5158,0.99343 8.0958,0.20735 2.3427,-0.71171 4.7596,-1.43822 7.5916,-0.87479 1.5717,0.31159 2.1648,0.77101 2.2686,0.97858 0.6079,1.26035 -1.7052,5.69371 -2.9507,8.080923 z"
       id="path2-7-7-0"
       style="fill:#000000;stroke-width:1.48273" /></g></svg>
